<svg xmlns="http://www.w3.org/2000/svg" viewBox="0 0 24 24" width="24" height="24">
  <!-- White Background -->
  <rect width="24" height="24" fill="white"/>
  
  <!-- Share Icon -->
  <path fill="black" d="M18 16.08c-.76 0-1.44.3-1.96.77L8.91 12.7c.05-.23.09-.46.09-.7s-.04-.47-.09-.7l7.05-4.11c.53.48 1.21.78 1.96.78 1.66 0 3-1.34 3-3s-1.34-3-3-3-3 1.34-3 3c0 .24.04.47.09.7L8.04 8.81C7.51 8.34 6.83 8.04 6.08 8.04c-1.66 0-3 1.34-3 3s1.34 3 3 3c.76 0 1.44-.3 1.96-.77l7.13 4.15c-.05.21-.09.43-.09.66 0 1.66 1.34 3 3 3s3-1.34 3-3-1.34-3-3-3z"/>
</svg>
