<svg width="41" height="41" viewBox="0 0 41 41" fill="none" xmlns="http://www.w3.org/2000/svg">
                                        <rect x="0.200195" y="0.450195" width="40" height="40" rx="20" fill="white" fill-opacity="0.2" />
                                        <path d="M24.0605 20.2061C24.0605 20.2646 23.9727 21.9932 25.877 22.9014C25.5254 23.9854 24.2949 26.3877 22.8594 26.3877C22.0391 26.3877 21.5703 25.8604 20.6328 25.8604C19.666 25.8604 19.1387 26.3877 18.4062 26.3877C17 26.4463 15.6523 23.8096 15.2715 22.7256C14.9785 21.9053 14.8613 21.1143 14.8613 20.3525C14.8613 17.7451 16.5898 16.4854 18.2305 16.4561C19.0215 16.4561 20.0176 17.0127 20.457 17.0127C20.8672 17.0127 22.0098 16.3389 23.0645 16.4268C24.1484 16.5146 24.9688 16.9248 25.5254 17.7158C24.5586 18.3311 24.0605 19.1221 24.0605 20.2061ZM22.4199 15.4014C21.834 16.0752 21.1309 16.4561 20.3691 16.3975C20.3105 15.6064 20.6035 14.874 21.1309 14.2881C21.5996 13.7607 22.4199 13.3213 23.123 13.2627C23.123 13.585 23.2109 14.4639 22.4199 15.4014Z" fill="#FEFEFE" />
                                    </svg>