<svg viewBox="0 0 100 100" width="100%" height="100%" aria-labelledby="widget-plumprint-1"><title id="widget-plumprint-1">Plum Print visual indicator of research metrics</title><path fill="#6e1a62" stroke="#6e1a62" stroke-width="1" d="M 36.075524746876404,57.96956599135724 C 47.24224000477168,47.68596460512846 53.05297314616313,51.90770935123954 46.72339182284403,65.70569425459581 L 53.27660817715597,65.70569425459581 C 46.94702685383687,51.90770935123954 52.910968883852114,47.55740708319115 64.07689625937145,58.88039800888424 L 66.60821528599423,51.08979911330883 C 50.91930320327874,53.68712375984879 48.651416263702714,46.662138123559565 61.88240715909315,39.21976840364822 L 56.58074376063895,35.36788447550181 C 53.59123058093537,50.25112330547885 46.40876941906463,50.25112330547885 43.419256239361054,35.3678844755018 L 38.11759284090686,39.2197684036482 C 51.348583736297286,46.662138123559565 49.12908117584119,53.493064614593585 34.05046952557818,51.73708687489691 Z"></path><circle fill="#6e1a62" stroke="#6e1a62" stroke-width="1" r="4" cx="32.880982706687234" cy="55.56230589874905"></circle><circle fill="#6e1a62" stroke="#6e1a62" stroke-width="1" r="4" cx="50" cy="68"></circle><circle fill="#c43bf3" stroke="#6e1a62" stroke-width="1" r="5" cx="68.07007380960792" cy="55.871322893124"></circle><circle fill="none" stroke="#ffffff" stroke-width="1.5" r="3.5" cx="68.07007380960792" cy="55.871322893124"></circle><circle fill="#6e1a62" stroke="#6e1a62" stroke-width="1" r="4" cx="60.58013454126452" cy="35.43769410125095"></circle><circle fill="#6e1a62" stroke="#6e1a62" stroke-width="1" r="4" cx="39.41986545873549" cy="35.43769410125094"></circle></svg>