 <svg width="41" height="41" viewBox="0 0 41 41" fill="none" xmlns="http://www.w3.org/2000/svg">
                                        <rect x="0.549805" y="0.450195" width="40" height="40" rx="20" fill="white" fill-opacity="0.2" />
                                        <path d="M25.2906 15.1963C26.5211 16.4268 27.2828 18.0381 27.2828 19.7959C27.2828 23.3701 24.2945 26.2998 20.691 26.2998C19.607 26.2998 18.5523 26.0068 17.5855 25.5088L14.1578 26.3877L15.066 23.0186C14.5094 22.0518 14.1871 20.9385 14.1871 19.7666C14.1871 16.1924 17.1168 13.2627 20.691 13.2627C22.4488 13.2627 24.0894 13.9658 25.2906 15.1963ZM20.691 25.1865C23.6793 25.1865 26.1695 22.7549 26.1695 19.7959C26.1695 18.3311 25.5543 16.9834 24.5289 15.958C23.5035 14.9326 22.1559 14.376 20.7203 14.376C17.732 14.376 15.3004 16.8076 15.3004 19.7666C15.3004 20.792 15.5934 21.7881 16.1207 22.667L16.2672 22.8721L15.7105 24.8643L17.7613 24.3076L17.9371 24.4248C18.7867 24.9229 19.7242 25.1865 20.691 25.1865ZM23.6793 21.1436C23.8258 21.2314 23.943 21.2607 23.9723 21.3486C24.0309 21.4072 24.0309 21.7295 23.8844 22.1104C23.7379 22.4912 23.0934 22.8428 22.8004 22.8721C22.273 22.96 21.8629 22.9307 20.8375 22.4619C19.1969 21.7588 18.1422 20.1182 18.0543 20.0303C17.9664 19.9131 17.4098 19.1514 17.4098 18.3311C17.4098 17.54 17.8199 17.1592 17.9664 16.9834C18.1129 16.8076 18.2887 16.7783 18.4059 16.7783C18.4937 16.7783 18.6109 16.7783 18.6988 16.7783C18.816 16.7783 18.9332 16.749 19.0797 17.0713C19.1969 17.3936 19.5484 18.1846 19.5777 18.2725C19.607 18.3604 19.6363 18.4482 19.5777 18.5654C19.2848 19.1807 18.9332 19.1514 19.109 19.4443C19.7535 20.5283 20.3687 20.9092 21.3355 21.3779C21.482 21.4658 21.5699 21.4365 21.6871 21.3486C21.775 21.2314 22.0973 20.8506 22.1851 20.7041C22.3023 20.5283 22.4195 20.5576 22.566 20.6162C22.7125 20.6748 23.5035 21.0557 23.6793 21.1436Z" fill="#FEFEFE" />
                                    </svg>